<svg xmlns="http://www.w3.org/2000/svg" width="128.913" height="128.913" viewBox="0 0 128.913 128.913">
  <g id="downcast" transform="translate(-2 -2)">
    <path id="Caminho_12" data-name="Caminho 12" d="M130.913,32.765C130.913,17.192,116.43,2,116.43,2a67.892,67.892,0,0,0-9.823,14.043,64.274,64.274,0,1,0,20.34,28.107A16.486,16.486,0,0,0,130.913,32.765ZM66.457,125.542A59.085,59.085,0,1,1,104.31,21.131a32.815,32.815,0,0,0-2.372,11.634c0,13.669,11.905,18.564,20.456,14.7a59.052,59.052,0,0,1-55.938,78.074Z" transform="translate(0 0)" fill="#fff"/>
    <circle id="Elipse_3" data-name="Elipse 3" cx="10.743" cy="10.743" r="10.743" transform="translate(80.416 64.308)" fill="#fff"/>
    <circle id="Elipse_4" data-name="Elipse 4" cx="10.743" cy="10.743" r="10.743" transform="translate(30.999 64.308)" fill="#fff"/>
    <path id="Caminho_13" data-name="Caminho 13" d="M42.88,25.572c1.162-1.008-2.086-4.428-3.038-3.6a30.578,30.578,0,0,1-25.123,6.731c-1.242-.243-2.338,4.342-.827,4.632A35.273,35.273,0,0,0,42.88,25.572" transform="translate(12.815 22.794)" fill="#fff"/>
    <path id="Caminho_14" data-name="Caminho 14" d="M65.295,28.555a30.566,30.566,0,0,1-25.119-6.731c-.952-.836-4.2,2.589-3.034,3.6a35.275,35.275,0,0,0,28.988,7.767c1.51-.29.41-4.877-.836-4.632" transform="translate(40.076 22.619)" fill="#fff"/>
    <path id="Caminho_15" data-name="Caminho 15" d="M59.672,48H25.3c-3.231,0-3.231,8.594,0,8.594H59.672c3.231,0,3.231-8.594,0-8.594" transform="translate(23.973 52.834)" fill="#fff"/>
  </g>
</svg>
