<svg xmlns="http://www.w3.org/2000/svg" width="127.483" height="127.483" viewBox="0 0 127.483 127.483">
  <g id="Layer_17" data-name="Layer 17" transform="translate(-3 -3)">
    <path id="Caminho_11" data-name="Caminho 11" d="M66.742,3a63.742,63.742,0,1,0,63.742,63.742A63.742,63.742,0,0,0,66.742,3Zm0,123.087a59.346,59.346,0,1,1,59.346-59.346,59.346,59.346,0,0,1-59.346,59.346Zm36.64-39.014a2.21,2.21,0,1,1-2.945,3.3l-1.165-1.077c-5.693-5.143-15.21-13.759-32.53-13.759S39.9,84.15,34.211,89.293L33.046,90.37a2.21,2.21,0,0,1-2.945-3.3l1.165-1.033c6.154-5.561,16.463-14.9,35.475-14.9s29.321,9.341,35.475,14.9ZM75.534,44.762a2.419,2.419,0,0,1,0-.4,2.571,2.571,0,0,1,.132-.44s0-.11,0-.154a.616.616,0,0,1,.154-.2,1.561,1.561,0,0,1,.615-.615.875.875,0,0,1,.2-.154l21.98-10.99a2.2,2.2,0,1,1,1.978,3.912L82.655,44.762,100.7,53.8a2.2,2.2,0,0,1-.989,4.154,2.044,2.044,0,0,1-.989-.242l-21.98-10.99h0a2.594,2.594,0,0,1-.615-.484V46.1a1.43,1.43,0,0,1-.22-.33s0-.11,0-.154a2.571,2.571,0,0,1-.132-.44A2.417,2.417,0,0,1,75.534,44.762ZM32.783,53.8l18.045-9.034L32.783,35.728a2.2,2.2,0,1,1,1.978-3.912l21.98,10.99s.132.11.2.154a1.561,1.561,0,0,1,.615.615.616.616,0,0,1,.154.2v.154a2.572,2.572,0,0,1,.132.44,1.8,1.8,0,0,1,0,.791,2.572,2.572,0,0,1-.132.44v.154a1.429,1.429,0,0,1-.22.33.461.461,0,0,0,0,.132,2.593,2.593,0,0,1-.615.484h0l-21.98,10.99a2.044,2.044,0,0,1-1.121.264,2.2,2.2,0,0,1-.989-4.154Z" transform="translate(0 0)" fill="#fff"/>
  </g>
</svg>
