<svg xmlns="http://www.w3.org/2000/svg" width="116.923" height="116.923" viewBox="0 0 116.923 116.923">
  <g id="money-recive" transform="translate(1 2.243)">
    <path id="Caminho_3" data-name="Caminho 3" d="M9.5,37.336a9.381,9.381,0,0,0,9.158,9.6h10.31a8.166,8.166,0,0,0,7.952-8.391c0-4.99-2.194-6.8-5.429-7.952L14.984,24.832c-3.236-1.152-5.429-2.907-5.429-7.952A8.2,8.2,0,0,1,17.507,8.49h10.31a9.381,9.381,0,0,1,9.158,9.6" transform="translate(33.63 29.101)" fill="none" stroke="#fff" stroke-linecap="round" stroke-linejoin="round" stroke-width="6"/>
    <path id="Caminho_4" data-name="Caminho 4" d="M12,7.5V56.856" transform="translate(44.84 24.662)" fill="none" stroke="#fff" stroke-linecap="round" stroke-linejoin="round" stroke-width="6"/>
    <path id="Caminho_5" data-name="Caminho 5" d="M111.68,56.84A54.84,54.84,0,1,1,56.84,2" fill="none" stroke="#fff" stroke-linecap="round" stroke-linejoin="round" stroke-width="6"/>
    <path id="Caminho_6" data-name="Caminho 6" d="M17,3V24.936H38.936" transform="translate(67.26 4.484)" fill="none" stroke="#fff" stroke-linecap="round" stroke-linejoin="round" stroke-width="6"/>
    <path id="Caminho_7" data-name="Caminho 7" d="M44.42,2,17,29.42" transform="translate(67.26)" fill="none" stroke="#fff" stroke-linecap="round" stroke-linejoin="round" stroke-width="6"/>
  </g>
</svg>
