<?xml version="1.0" encoding="UTF-8"?>
<svg id="Camada_2" data-name="Camada 2" xmlns="http://www.w3.org/2000/svg" xmlns:xlink="http://www.w3.org/1999/xlink" viewBox="0 0 622.52 87.22">
  <defs>
    <style>
      .cls-1 {
        fill: url(#Gradiente_sem_nome_16-2);
      }

      .cls-2 {
        fill: #fff;
      }

      .cls-3 {
        fill: #ffb9dd;
      }

      .cls-4 {
        fill: url(#Gradiente_sem_nome_16);
      }

      .cls-5 {
        fill: url(#Gradiente_sem_nome_16-3);
      }
    </style>
    <linearGradient id="Gradiente_sem_nome_16" data-name="Gradiente sem nome 16" x1="549.86" y1="41.81" x2="608.59" y2="41.81" gradientUnits="userSpaceOnUse">
      <stop offset="0" stop-color="#ffb9dd"/>
      <stop offset="1" stop-color="#cb71b9"/>
    </linearGradient>
    <linearGradient id="Gradiente_sem_nome_16-2" data-name="Gradiente sem nome 16" x1="264.59" y1="47.72" y2="47.72" xlink:href="#Gradiente_sem_nome_16"/>
    <linearGradient id="Gradiente_sem_nome_16-3" data-name="Gradiente sem nome 16" y1="35.36" x2="622.52" y2="35.36" xlink:href="#Gradiente_sem_nome_16"/>
  </defs>
  <g id="Camada_1-2" data-name="Camada 1">
    <g>
      <path class="cls-4" d="M608.59,12.91v11.04c-.96,1.46-1.91,2.94-2.88,4.42-.48.73-.96,1.46-1.44,2.19-7.95,12.17-15.84,24.24-22.11,33.96l-3.35,5.24c-.37.58-1.02.94-1.72.96-.13,0-.25-.01-.38-.03-.56-.09-1.07-.39-1.4-.85-.81-1.12-5.83-8.06-11.18-15.47-6.1-8.43-12.63-17.46-13.88-19.19-.61-.84-.48-1.99.31-2.66.49-.42,1.12-.58,1.72-.48.38.06.76.22,1.07.48l22.58,19.34c5.6-6.63,11.91-14.16,18.31-21.81.72-.85,1.43-1.71,2.15-2.57,1.73-2.06,3.46-4.13,5.18-6.19,2.39-2.86,4.74-5.67,7.02-8.38Z"/>
      <path class="cls-1" d="M587.2,67.77c6.12-9.47,13.88-21.36,21.39-32.84v21.43c0,14.56-11.8,26.36-26.36,26.36h-317.64v-47.5c0-12.43,10.07-22.5,22.5-22.5h313.82c-1.29,1.55-2.61,3.12-3.94,4.72l-7.33,8.76c-4.95,5.91-9.85,11.76-14.4,17.17l-17.98-15.39c-1.15-.99-2.55-1.64-4.06-1.87-.42-.07-.84-.1-1.26-.1-1.94,0-3.81.69-5.28,1.95-3.18,2.72-3.73,7.33-1.27,10.75.86,1.18,4.19,5.78,8.15,11.27,0,0,16.19,22.38,16.93,23.41,1.28,1.75,3.17,2.89,5.3,3.22.41.07.82.1,1.27.11h.05s.09,0,.14-.01c2.71-.06,5.19-1.45,6.64-3.72l3.33-5.22Z"/>
      <g>
        <path class="cls-2" d="M300.86,26.16h10.2v36.42h17.87v8.54h-28.08V26.16Z"/>
        <path class="cls-2" d="M373.56,48.17c0,14.74-8.94,23.68-22.08,23.68s-21.14-10.07-21.14-22.88c0-13.47,8.6-23.54,21.88-23.54s21.34,10.34,21.34,22.74ZM341.08,48.77c0,8.8,4.14,15.01,10.94,15.01s10.8-6.54,10.8-15.27c0-8.07-3.87-15.01-10.87-15.01s-10.87,6.54-10.87,15.27Z"/>
        <path class="cls-2" d="M387.04,34.7h-12.07v-8.54h34.55v8.54h-12.27v36.42h-10.21v-36.42Z"/>
        <path class="cls-2" d="M420.59,59.58l-3.2,11.54h-10.54l13.74-44.95h13.34l13.94,44.95h-10.94l-3.47-11.54h-12.87ZM431.99,51.97l-2.8-9.54c-.8-2.67-1.6-6-2.27-8.67h-.13c-.67,2.67-1.33,6.07-2.07,8.67l-2.67,9.54h9.94Z"/>
        <path class="cls-2" d="M453.87,26.76c3.73-.6,8.6-.93,13.74-.93,8.54,0,14.07,1.53,18.41,4.8,4.67,3.47,7.6,9,7.6,16.94,0,8.6-3.13,14.54-7.47,18.21-4.74,3.94-11.94,5.8-20.74,5.8-5.27,0-9-.33-11.54-.67V26.76ZM464.08,63.44c.87.2,2.27.2,3.54.2,9.2.07,15.21-5,15.21-15.74.07-9.34-5.4-14.27-14.14-14.27-2.27,0-3.73.2-4.6.4v29.41Z"/>
        <path class="cls-2" d="M509.7,59.58l-3.2,11.54h-10.54l13.74-44.95h13.34l13.94,44.95h-10.94l-3.47-11.54h-12.87ZM521.11,51.97l-2.8-9.54c-.8-2.67-1.6-6-2.27-8.67h-.13c-.67,2.67-1.33,6.07-2.07,8.67l-2.67,9.54h9.94Z"/>
      </g>
      <g>
        <path class="cls-3" d="M15.42,58.63l-3.59,12.95H0L15.42,21.13h14.97l15.64,50.45h-12.27l-3.89-12.95h-14.44ZM28.22,50.1l-3.14-10.7c-.9-2.99-1.8-6.74-2.54-9.73h-.15c-.75,2.99-1.5,6.81-2.32,9.73l-2.99,10.7h11.15Z"/>
        <path class="cls-3" d="M86.3,34.98c-.15,2.32-.3,5.39-.3,10.85v20.43c0,7.04-1.42,12.8-5.54,16.46-4.04,3.44-9.5,4.49-14.89,4.49-4.79,0-9.88-.97-13.17-2.84l2.25-8.61c2.32,1.35,6.36,2.77,10.63,2.77,5.39,0,9.51-2.92,9.51-9.66v-2.4h-.15c-2.17,3.07-5.69,4.79-9.88,4.79-9.06,0-15.49-7.33-15.49-17.89,0-11.75,7.63-19.23,16.62-19.23,5.01,0,8.16,2.17,10.03,5.16h.15l.38-4.34h9.88ZM74.62,49.87c0-.75-.07-1.5-.22-2.1-.82-2.99-2.99-5.01-6.14-5.01-4.12,0-7.48,3.74-7.48,10.4,0,5.46,2.69,9.73,7.48,9.73,2.92,0,5.24-1.95,5.99-4.64.3-.82.37-2.02.37-2.99v-5.39Z"/>
        <path class="cls-3" d="M103.89,56.91c.37,4.72,5.01,6.96,10.33,6.96,3.89,0,7.04-.52,10.1-1.5l1.5,7.71c-3.74,1.5-8.31,2.25-13.25,2.25-12.42,0-19.53-7.18-19.53-18.64,0-9.28,5.76-19.53,18.49-19.53,11.83,0,16.32,9.21,16.32,18.26,0,1.95-.22,3.67-.37,4.49h-23.58ZM117.28,49.13c0-2.77-1.2-7.41-6.44-7.41-4.79,0-6.74,4.34-7.04,7.41h13.47Z"/>
        <path class="cls-3" d="M134.65,46.66c0-4.57-.15-8.46-.3-11.68h9.88l.52,5.01h.22c1.5-2.32,5.24-5.84,11.3-5.84,7.48,0,13.1,4.94,13.1,15.72v21.71h-11.38v-20.28c0-4.71-1.65-7.93-5.76-7.93-3.14,0-5.01,2.17-5.76,4.27-.3.67-.45,1.8-.45,2.84v21.11h-11.38v-24.92Z"/>
        <path class="cls-3" d="M213.99,18.44v42.21c0,4.12.15,8.46.3,10.93h-10.1l-.52-5.39h-.15c-2.32,4.12-6.74,6.21-11.45,6.21-8.68,0-15.64-7.41-15.64-18.79-.07-12.35,7.63-19.46,16.39-19.46,4.49,0,8.01,1.57,9.66,4.12h.15v-19.83h11.38ZM202.61,50.47c0-.6-.07-1.42-.15-2.02-.67-3.07-3.14-5.61-6.66-5.61-5.16,0-7.86,4.64-7.86,10.4,0,6.21,3.07,10.1,7.78,10.1,3.29,0,5.91-2.25,6.59-5.46.22-.82.3-1.65.3-2.62v-4.79Z"/>
        <path class="cls-3" d="M243.93,71.58l-.67-3.67h-.22c-2.39,2.92-6.14,4.49-10.48,4.49-7.41,0-11.83-5.39-11.83-11.23,0-9.5,8.53-14.07,21.48-14v-.52c0-1.95-1.05-4.72-6.66-4.72-3.74,0-7.71,1.27-10.1,2.77l-2.1-7.33c2.54-1.42,7.56-3.22,14.22-3.22,12.2,0,16.09,7.18,16.09,15.79v12.72c0,3.52.15,6.89.52,8.91h-10.25ZM242.58,54.29c-5.99-.08-10.63,1.35-10.63,5.76,0,2.92,1.95,4.34,4.49,4.34,2.84,0,5.16-1.87,5.91-4.19.15-.6.22-1.27.22-1.95v-3.97Z"/>
      </g>
      <path class="cls-5" d="M622.2,3.12c-3.98,6.1-8.56,13.11-13.42,20.54-.06.1-.13.19-.19.29-.96,1.46-1.91,2.94-2.88,4.42-.48.73-.96,1.46-1.44,2.19-7.95,12.17-15.84,24.24-22.11,33.96l-3.35,5.24c-.37.58-1.02.94-1.72.96-.13,0-.25-.01-.38-.03-.56-.09-1.07-.39-1.4-.85-.81-1.12-5.83-8.06-11.18-15.47-6.1-8.43-12.63-17.46-13.88-19.19-.61-.84-.48-1.99.31-2.66.49-.42,1.12-.58,1.72-.48.38.06.76.22,1.07.48l22.58,19.34c5.6-6.63,11.91-14.16,18.31-21.81.72-.85,1.43-1.71,2.15-2.57,1.73-2.06,3.46-4.13,5.18-6.19,2.39-2.86,4.74-5.67,7.02-8.38,3.63-4.35,7.07-8.45,10.19-12.16.49-.58,1.24-.83,1.95-.72.32.05.63.16.91.37.9.62,1.15,1.82.56,2.72Z"/>
    </g>
  </g>
</svg>